<?xml version="1.0" standalone="no"?>
<svg xmlns="http://www.w3.org/2000/svg" xmlns:xlink="http://www.w3.org/1999/xlink" width="1285pt" height="1421pt" viewBox="0.00 0.00 1285.33 1421">
<g id="graph0" class="graph" transform="translate(123.66015535398043,1276.5195596393123) scale(0.9075191553171779)" data-name="G">

<polygon fill="white" stroke="none" points="-4,4 -4,-1417 1281.33,-1417 1281.33,4 -4,4"/>
<!-- Life --><g id="clust1" class="cluster" data-name="cluster_0" data-comment="Life">

<polygon fill="lightgrey" stroke="lightgrey" points="104.71,-370 104.71,-771 285.47,-771 285.47,-370 104.71,-370"/>
<text text-anchor="middle" x="195.09" y="-754.4" font-family="Times,serif" font-size="14.00">Values</text>
</g>
<g id="node8" class="node" pointer-events="visible" data-name="Life">

<polygon fill="none" stroke="black" points="38.35,-576 0.15,-558 38.35,-540 76.56,-558 38.35,-576"/>
<polyline fill="none" stroke="black" points="11,-563.11 11,-552.89"/>
<polyline fill="none" stroke="black" points="27.5,-545.11 49.21,-545.11"/>
<polyline fill="none" stroke="black" points="65.71,-552.89 65.71,-563.11"/>
<polyline fill="none" stroke="black" points="49.21,-570.89 27.5,-570.89"/>
<text text-anchor="middle" x="38.35" y="-553.8" font-family="Times,serif" font-size="14.00">Life</text>
</g>
<!-- Outdoors -->
<g id="node1" class="node" pointer-events="visible" data-name="Outdoors">

<ellipse fill="rgb(255, 255, 255)" stroke="rgb(255, 255, 255)" cx="195.09" cy="-720" rx="46.96" ry="18"/>
<text text-anchor="middle" x="195.09" y="-715.8" font-family="Times,serif" font-size="14.00">Outdoors</text>
</g>
<!-- Life&#45;&gt;Outdoors -->
<g id="edge1" class="edge" data-name="Life-&gt;Outdoors">

<path fill="none" stroke="black" d="M42.75,-574.33C49.49,-602.69 67.28,-661.05 104.71,-693 114.53,-701.38 126.89,-707.17 139.27,-711.15"/>
<polygon fill="black" stroke="black" points="138.05,-714.44 148.62,-713.8 139.95,-707.71 138.05,-714.44"/>
</g>
<!-- Career -->
<g id="node2" class="node" pointer-events="visible" data-name="Career">

<ellipse fill="rgb(255, 255, 255)" stroke="rgb(255, 255, 255)" cx="195.09" cy="-558" rx="36.54" ry="18"/>
<text text-anchor="middle" x="195.09" y="-553.8" font-family="Times,serif" font-size="14.00">Career</text>
</g>
<!-- Life&#45;&gt;Career -->
<g id="edge2" class="edge" data-name="Life-&gt;Career">

<path fill="none" stroke="black" d="M77.6,-558C98.56,-558 124.72,-558 146.93,-558"/>
<polygon fill="black" stroke="black" points="146.62,-561.5 156.62,-558 146.62,-554.5 146.62,-561.5"/>
</g>
<!-- Learning -->
<g id="node3" class="node" pointer-events="visible" data-name="Learning">

<ellipse fill="rgb(255, 255, 255)" stroke="rgb(255, 255, 255)" cx="195.09" cy="-666" rx="45.78" ry="18"/>
<text text-anchor="middle" x="195.09" y="-661.8" font-family="Times,serif" font-size="14.00">Learning</text>
</g>
<!-- Life&#45;&gt;Learning -->
<g id="edge3" class="edge" data-name="Life-&gt;Learning">

<path fill="none" stroke="black" d="M47.15,-572.2C57.81,-590.33 78.63,-621.44 104.71,-639 115.73,-646.42 128.86,-651.86 141.62,-655.82"/>
<polygon fill="black" stroke="black" points="140.64,-659.18 151.21,-658.53 142.54,-652.45 140.64,-659.18"/>
</g>
<!-- Relationships -->
<g id="node4" class="node" pointer-events="visible" data-name="Relationships">

<ellipse fill="rgb(255, 255, 255)" stroke="rgb(255, 255, 255)" cx="195.09" cy="-504" rx="63.72" ry="18"/>
<text text-anchor="middle" x="195.09" y="-499.8" font-family="Times,serif" font-size="14.00">Relationships</text>
</g>
<!-- Life&#45;&gt;Relationships -->
<g id="edge4" class="edge" data-name="Life-&gt;Relationships">

<path fill="none" stroke="black" d="M58.89,-549.34C71.78,-543.77 89.1,-536.57 104.71,-531 115.36,-527.2 126.84,-523.47 137.91,-520.05"/>
<polygon fill="black" stroke="black" points="138.8,-523.44 147.35,-517.18 136.76,-516.74 138.8,-523.44"/>
</g>
<!-- Home -->
<g id="node5" class="node" pointer-events="visible" data-name="Home">

<ellipse fill="rgb(255, 255, 255)" stroke="rgb(255, 255, 255)" cx="195.09" cy="-450" rx="34.77" ry="18"/>
<text text-anchor="middle" x="195.09" y="-445.8" font-family="Times,serif" font-size="14.00">Home</text>
</g>
<!-- Life&#45;&gt;Home -->
<g id="edge5" class="edge" data-name="Life-&gt;Home">

<path fill="none" stroke="black" d="M47.15,-543.8C57.81,-525.67 78.63,-494.56 104.71,-477 118.34,-467.82 135.19,-461.68 150.58,-457.6"/>
<polygon fill="black" stroke="black" points="151.08,-461.08 159.98,-455.34 149.44,-454.28 151.08,-461.08"/>
</g>
<!-- Health -->
<g id="node6" class="node" pointer-events="visible" data-name="Health">

<ellipse fill="rgb(255, 255, 255)" stroke="rgb(255, 255, 255)" cx="195.09" cy="-396" rx="36.56" ry="18"/>
<text text-anchor="middle" x="195.09" y="-391.8" font-family="Times,serif" font-size="14.00">Health</text>
</g>
<!-- Life&#45;&gt;Health -->
<g id="edge6" class="edge" data-name="Life-&gt;Health">

<path fill="none" stroke="black" d="M42.75,-541.67C49.49,-513.31 67.28,-454.95 104.71,-423 116.91,-412.58 133.04,-406.18 148.23,-402.26"/>
<polygon fill="black" stroke="black" points="148.6,-405.76 157.58,-400.14 147.06,-398.93 148.6,-405.76"/>
</g>
<!-- Environmentalism -->
<g id="node7" class="node" pointer-events="visible" data-name="Environmentalism">

<ellipse fill="rgb(255, 255, 255)" stroke="rgb(255, 255, 255)" cx="195.09" cy="-612" rx="82.26" ry="18"/>
<text text-anchor="middle" x="195.09" y="-607.8" font-family="Times,serif" font-size="14.00">Environmentalism</text>
</g>
<!-- Life&#45;&gt;Environmentalism -->
<g id="edge7" class="edge" data-name="Life-&gt;Environmentalism">

<path fill="none" stroke="black" d="M58.89,-566.66C71.78,-572.23 89.1,-579.43 104.71,-585 113.71,-588.21 123.3,-591.37 132.74,-594.34"/>
<polygon fill="black" stroke="black" points="131.66,-597.67 142.25,-597.28 133.73,-590.98 131.66,-597.67"/>
</g>
<!-- Eclectic Outdoorsman -->
<g id="node9" class="node" pointer-events="visible" data-name="Eclectic Outdoorsman">

<ellipse fill="none" stroke="black" cx="425.35" cy="-1071" rx="97.23" ry="18"/>
<text text-anchor="middle" x="425.35" y="-1066.8" font-family="Times,serif" font-size="14.00">Eclectic Outdoorsman</text>
</g>
<!-- Outdoors&#45;&gt;Eclectic Outdoorsman -->
<g id="edge8" class="edge" data-name="Outdoors-&gt;Eclectic Outdoorsman">

<path fill="none" stroke="black" d="M207.41,-737.41C244.36,-794.23 361.67,-974.62 406.61,-1043.71"/>
<polygon fill="black" stroke="black" points="403.48,-1045.33 411.87,-1051.8 409.35,-1041.51 403.48,-1045.33"/>
</g>
<!-- Respected Career -->
<g id="node10" class="node" pointer-events="visible" data-name="Respected Career">

<ellipse fill="none" stroke="black" cx="425.35" cy="-720" rx="78.73" ry="18"/>
<text text-anchor="middle" x="425.35" y="-715.8" font-family="Times,serif" font-size="14.00">Respected Career</text>
</g>
<!-- Career&#45;&gt;Respected Career -->
<g id="edge9" class="edge" data-name="Career-&gt;Respected Career">

<path fill="none" stroke="black" d="M231.32,-560.5C249.79,-563.61 271.43,-570.39 285.47,-585 319.83,-620.75 278.14,-658.2 313.47,-693 321.06,-700.48 330.36,-706.01 340.32,-710.08"/>
<polygon fill="black" stroke="black" points="338.86,-713.28 349.45,-713.31 341.19,-706.68 338.86,-713.28"/>
</g>
<!-- Knowledgeable -->
<g id="node11" class="node" pointer-events="visible" data-name="Knowledgeable">

<ellipse fill="none" stroke="black" cx="425.35" cy="-666" rx="71.78" ry="18"/>
<text text-anchor="middle" x="425.35" y="-661.8" font-family="Times,serif" font-size="14.00">Knowledgeable</text>
</g>
<!-- Learning&#45;&gt;Knowledgeable -->
<g id="edge10" class="edge" data-name="Learning-&gt;Knowledgeable">

<path fill="none" stroke="black" d="M241.19,-666C269.9,-666 307.96,-666 341.94,-666"/>
<polygon fill="black" stroke="black" points="341.77,-669.5 351.77,-666 341.77,-662.5 341.77,-669.5"/>
</g>
<!-- Competent Programmer -->
<g id="node12" class="node" pointer-events="visible" data-name="Competent Programmer">

<ellipse fill="none" stroke="black" cx="425.35" cy="-828" rx="104.2" ry="18"/>
<text text-anchor="middle" x="425.35" y="-823.8" font-family="Times,serif" font-size="14.00">Competent Programmer</text>
</g>
<!-- Learning&#45;&gt;Competent Programmer -->
<g id="edge11" class="edge" data-name="Learning-&gt;Competent Programmer">

<path fill="none" stroke="black" d="M239.92,-670.19C256.19,-673.85 273.56,-680.61 285.47,-693 319.83,-728.75 278.14,-766.2 313.47,-801 318.12,-805.59 323.42,-809.44 329.12,-812.67"/>
<polygon fill="black" stroke="black" points="327.16,-815.61 337.68,-816.88 330.25,-809.33 327.16,-815.61"/>
</g>
<!-- Fun &amp; Tight Social Circle -->
<g id="node13" class="node" pointer-events="visible" data-name="Fun &amp; Tight Social Circle">

<ellipse fill="none" stroke="black" cx="425.35" cy="-558" rx="111.78" ry="18"/>
<text text-anchor="middle" x="425.35" y="-553.8" font-family="Times,serif" font-size="14.00">Fun &amp; Tight Social Circle</text>
</g>
<!-- Relationships&#45;&gt;Fun &amp; Tight Social Circle -->
<g id="edge12" class="edge" data-name="Relationships-&gt;Fun &amp; Tight Social Circle">

<path fill="none" stroke="black" d="M245.06,-515.58C275.55,-522.8 315.39,-532.22 349.76,-540.35"/>
<polygon fill="black" stroke="black" points="348.7,-543.7 359.24,-542.6 350.31,-536.89 348.7,-543.7"/>
</g>
<!-- Good Partner -->
<g id="node14" class="node" pointer-events="visible" data-name="Good Partner">

<ellipse fill="none" stroke="black" cx="425.35" cy="-504" rx="62.59" ry="18"/>
<text text-anchor="middle" x="425.35" y="-499.8" font-family="Times,serif" font-size="14.00">Good Partner</text>
</g>
<!-- Relationships&#45;&gt;Good Partner -->
<g id="edge13" class="edge" data-name="Relationships-&gt;Good Partner">

<path fill="none" stroke="black" d="M259.07,-504C287.62,-504 321.55,-504 351.23,-504"/>
<polygon fill="black" stroke="black" points="350.86,-507.5 360.86,-504 350.86,-500.5 350.86,-507.5"/>
</g>
<!-- Caring Family Member -->
<g id="node15" class="node" pointer-events="visible" data-name="Caring Family Member">

<ellipse fill="none" stroke="black" cx="425.35" cy="-391" rx="102.45" ry="18"/>
<text text-anchor="middle" x="425.35" y="-386.8" font-family="Times,serif" font-size="14.00">Caring Family Member</text>
</g>
<!-- Relationships&#45;&gt;Caring Family Member -->
<g id="edge14" class="edge" data-name="Relationships-&gt;Caring Family Member">

<path fill="none" stroke="black" d="M243.78,-492.1C257.51,-488.01 272.32,-482.93 285.47,-477 323.62,-459.78 363.95,-433.83 391.26,-414.94"/>
<polygon fill="black" stroke="black" points="392.92,-418.05 399.11,-409.45 388.91,-412.31 392.92,-418.05"/>
</g>
<!-- Financial Independence -->
<g id="node16" class="node" pointer-events="visible" data-name="Financial Independence">

<ellipse fill="none" stroke="black" cx="425.35" cy="-327" rx="103.01" ry="18"/>
<text text-anchor="middle" x="425.35" y="-322.8" font-family="Times,serif" font-size="14.00">Financial Independence</text>
</g>
<!-- Home&#45;&gt;Financial Independence -->
<g id="edge15" class="edge" data-name="Home-&gt;Financial Independence">

<path fill="none" stroke="black" d="M229.41,-446.57C247.74,-443.18 269.86,-436.43 285.47,-423 307.47,-404.07 291.74,-383.24 313.47,-364 322.54,-355.96 333.41,-349.66 344.75,-344.73"/>
<polygon fill="black" stroke="black" points="345.85,-348.06 353.86,-341.12 343.27,-341.55 345.85,-348.06"/>
</g>
<!-- Live in a Cool Place -->
<g id="node17" class="node" pointer-events="visible" data-name="Live in a Cool Place">

<ellipse fill="none" stroke="black" cx="425.35" cy="-253" rx="89.76" ry="18"/>
<text text-anchor="middle" x="425.35" y="-248.8" font-family="Times,serif" font-size="14.00">Live in a Cool Place</text>
</g>
<!-- Home&#45;&gt;Live in a Cool Place -->
<g id="edge16" class="edge" data-name="Home-&gt;Live in a Cool Place">

<path fill="none" stroke="black" d="M229.72,-447.95C248.62,-445.03 271.2,-438.29 285.47,-423 323.71,-382 277.48,-342.99 313.47,-300 324.15,-287.23 338.92,-277.86 354.19,-271.01"/>
<polygon fill="black" stroke="black" points="355.48,-274.26 363.4,-267.23 352.82,-267.79 355.48,-274.26"/>
</g>
<!-- Healthy &amp; Fit -->
<g id="node18" class="node" pointer-events="visible" data-name="Healthy &amp; Fit">

<ellipse fill="none" stroke="black" cx="425.35" cy="-159" rx="64.87" ry="18"/>
<text text-anchor="middle" x="425.35" y="-154.8" font-family="Times,serif" font-size="14.00">Healthy &amp; Fit</text>
</g>
<!-- Health&#45;&gt;Healthy &amp; Fit -->
<g id="edge17" class="edge" data-name="Health-&gt;Healthy &amp; Fit">

<path fill="none" stroke="black" d="M205.02,-378.29C222.37,-345.22 263.32,-273.19 313.47,-226 333.19,-207.44 358.9,-191.51 380.59,-179.85"/>
<polygon fill="black" stroke="black" points="381.98,-183.08 389.22,-175.34 378.73,-176.87 381.98,-183.08"/>
</g>
<!-- Lead a Conscious Life -->
<g id="node19" class="node" pointer-events="visible" data-name="Lead a Conscious Life">

<ellipse fill="none" stroke="black" cx="425.35" cy="-24" rx="98.38" ry="18"/>
<text text-anchor="middle" x="425.35" y="-19.8" font-family="Times,serif" font-size="14.00">Lead a Conscious Life</text>
</g>
<!-- Health&#45;&gt;Lead a Conscious Life -->
<g id="edge18" class="edge" data-name="Health-&gt;Lead a Conscious Life">

<path fill="none" stroke="black" d="M201.51,-377.81C215.36,-333.17 255.12,-215.75 313.47,-132 335.8,-99.93 368.55,-69.45 392.66,-49.1"/>
<polygon fill="black" stroke="black" points="394.82,-51.85 400.28,-42.77 390.35,-46.47 394.82,-51.85"/>
</g>
<!-- Environmentalist -->
<g id="node20" class="node" pointer-events="visible" data-name="Environmentalist">

<ellipse fill="none" stroke="black" cx="425.35" cy="-774" rx="77.6" ry="18"/>
<text text-anchor="middle" x="425.35" y="-769.8" font-family="Times,serif" font-size="14.00">Environmentalist</text>
</g>
<!-- Environmentalism&#45;&gt;Environmentalist -->
<g id="edge19" class="edge" data-name="Environmentalism-&gt;Environmentalist">

<path fill="none" stroke="black" d="M261.19,-622.91C270.24,-626.78 278.73,-631.99 285.47,-639 319.83,-674.75 278.14,-712.2 313.47,-747 321.22,-754.64 330.75,-760.24 340.93,-764.33"/>
<polygon fill="black" stroke="black" points="339.72,-767.61 350.31,-767.57 342,-761 339.72,-767.61"/>
</g>
<!-- Road to the Nose -->
<g id="node21" class="node" pointer-events="visible" data-name="Road to the Nose">

<ellipse fill="none" stroke="black" cx="698.8" cy="-1341" rx="77.64" ry="18"/>
<text text-anchor="middle" x="698.8" y="-1336.8" font-family="Times,serif" font-size="14.00">Road to the Nose</text>
</g>
<!-- Eclectic Outdoorsman&#45;&gt;Road to the Nose -->
<g id="edge20" class="edge" data-name="Eclectic Outdoorsman-&gt;Road to the Nose">

<path fill="none" stroke="black" d="M444.59,-1089.13C491.64,-1135.94 617.28,-1260.91 671.87,-1315.21"/>
<polygon fill="black" stroke="black" points="669.37,-1317.66 678.93,-1322.23 674.31,-1312.7 669.37,-1317.66"/>
</g>
<!-- Running -->
<g id="node41" class="node" pointer-events="visible" data-name="Running">

<ellipse fill="none" stroke="black" cx="698.8" cy="-1179" rx="44.11" ry="18"/>
<text text-anchor="middle" x="698.8" y="-1174.8" font-family="Times,serif" font-size="14.00">Running</text>
</g>
<!-- Eclectic Outdoorsman&#45;&gt;Running -->
<g id="edge44" class="edge" data-name="Eclectic Outdoorsman-&gt;Running">

<path fill="none" stroke="black" d="M467.88,-1087.52C518.79,-1107.78 604.61,-1141.92 655.76,-1162.28"/>
<polygon fill="black" stroke="black" points="654.44,-1165.52 665.03,-1165.96 657.03,-1159.01 654.44,-1165.52"/>
</g>
<!-- Mountain Biking -->
<g id="node42" class="node" pointer-events="visible" data-name="Mountain Biking">

<ellipse fill="none" stroke="black" cx="698.8" cy="-1071" rx="77.09" ry="18"/>
<text text-anchor="middle" x="698.8" y="-1066.8" font-family="Times,serif" font-size="14.00">Mountain Biking</text>
</g>
<!-- Eclectic Outdoorsman&#45;&gt;Mountain Biking -->
<g id="edge45" class="edge" data-name="Eclectic Outdoorsman-&gt;Mountain Biking">

<path fill="none" stroke="black" d="M522.82,-1071C551.21,-1071 582.11,-1071 609.94,-1071"/>
<polygon fill="black" stroke="black" points="609.74,-1074.5 619.74,-1071 609.74,-1067.5 609.74,-1074.5"/>
</g>
<!-- Backcountry Skiing -->
<g id="node60" class="node" pointer-events="visible" data-name="Backcountry Skiing">

<ellipse fill="none" stroke="black" cx="698.8" cy="-1017" rx="88.03" ry="18"/>
<text text-anchor="middle" x="698.8" y="-1012.8" font-family="Times,serif" font-size="14.00">Backcountry Skiing</text>
</g>
<!-- Eclectic Outdoorsman&#45;&gt;Backcountry Skiing -->
<g id="edge63" class="edge" data-name="Eclectic Outdoorsman-&gt;Backcountry Skiing">

<path fill="none" stroke="black" d="M493.1,-1057.72C532.56,-1049.87 582.62,-1039.91 623.35,-1031.81"/>
<polygon fill="black" stroke="black" points="623.96,-1035.26 633.09,-1029.87 622.6,-1028.39 623.96,-1035.26"/>
</g>
<!-- Masters -->
<g id="node24" class="node" pointer-events="visible" data-name="Masters">

<ellipse fill="none" stroke="black" cx="698.8" cy="-720" rx="41.72" ry="18"/>
<text text-anchor="middle" x="698.8" y="-715.8" font-family="Times,serif" font-size="14.00">Masters</text>
</g>
<!-- Respected Career&#45;&gt;Masters -->
<g id="edge23" class="edge" data-name="Respected Career-&gt;Masters">

<path fill="none" stroke="black" d="M504.5,-720C549.69,-720 605.33,-720 645.29,-720"/>
<polygon fill="black" stroke="black" points="645.13,-723.5 655.13,-720 645.13,-716.5 645.13,-723.5"/>
</g>
<!-- Wryze -->
<g id="node25" class="node" pointer-events="visible" data-name="Wryze">

<ellipse fill="none" stroke="black" cx="698.8" cy="-828" rx="36.54" ry="18"/>
<text text-anchor="middle" x="698.8" y="-823.8" font-family="Times,serif" font-size="14.00">Wryze</text>
</g>
<!-- Respected Career&#45;&gt;Wryze -->
<g id="edge24" class="edge" data-name="Respected Career-&gt;Wryze">

<path fill="none" stroke="black" d="M495.43,-728.46C510.12,-732.48 524.91,-738.36 537.24,-747 560.87,-763.54 549.4,-784.76 573.24,-801 595.89,-816.43 625.79,-823.25 650.61,-826.18"/>
<polygon fill="black" stroke="black" points="650.18,-829.66 660.47,-827.15 650.86,-822.69 650.18,-829.66"/>
</g>
<!-- Climatebase Fellowship -->
<g id="node26" class="node" pointer-events="visible" data-name="Climatebase Fellowship">

<ellipse fill="none" stroke="black" cx="698.8" cy="-774" rx="104.21" ry="18"/>
<text text-anchor="middle" x="698.8" y="-769.8" font-family="Times,serif" font-size="14.00">Climatebase Fellowship</text>
</g>
<!-- Respected Career&#45;&gt;Climatebase Fellowship -->
<g id="edge25" class="edge" data-name="Respected Career-&gt;Climatebase Fellowship">

<path fill="none" stroke="black" d="M485.92,-731.85C524.6,-739.55 575.49,-749.67 617.69,-758.06"/>
<polygon fill="black" stroke="black" points="616.81,-761.46 627.3,-759.98 618.17,-754.59 616.81,-761.46"/>
</g>
<!-- Knowledgeable&#45;&gt;Masters -->
<g id="edge26" class="edge" data-name="Knowledgeable-&gt;Masters">

<path fill="none" stroke="black" d="M482.6,-677.19C531.8,-686.98 602.53,-701.05 649.29,-710.35"/>
<polygon fill="black" stroke="black" points="648.37,-713.74 658.86,-712.25 649.74,-706.87 648.37,-713.74"/>
</g>
<!-- Knowledgeable&#45;&gt;Climatebase Fellowship -->
<g id="edge27" class="edge" data-name="Knowledgeable-&gt;Climatebase Fellowship">

<path fill="none" stroke="black" d="M491.37,-673.4C507.38,-677.41 523.77,-683.57 537.24,-693 560.87,-709.54 549.4,-730.76 573.24,-747 581.35,-752.52 590.38,-756.94 599.77,-760.47"/>
<polygon fill="black" stroke="black" points="598.47,-763.73 609.07,-763.61 600.71,-757.1 598.47,-763.73"/>
</g>
<!-- Reading -->
<g id="node49" class="node" pointer-events="visible" data-name="Reading">

<ellipse fill="none" stroke="black" cx="698.8" cy="-666" rx="43.44" ry="18"/>
<text text-anchor="middle" x="698.8" y="-661.8" font-family="Times,serif" font-size="14.00">Reading</text>
</g>
<!-- Knowledgeable&#45;&gt;Reading -->
<g id="edge52" class="edge" data-name="Knowledgeable-&gt;Reading">

<path fill="none" stroke="black" d="M497.32,-666C543.12,-666 601.78,-666 643.79,-666"/>
<polygon fill="black" stroke="black" points="643.66,-669.5 653.66,-666 643.66,-662.5 643.66,-669.5"/>
</g>
<!-- Movies -->
<g id="node52" class="node" pointer-events="visible" data-name="Movies">

<ellipse fill="none" stroke="black" cx="698.8" cy="-612" rx="40.01" ry="18"/>
<text text-anchor="middle" x="698.8" y="-607.8" font-family="Times,serif" font-size="14.00">Movies</text>
</g>
<!-- Knowledgeable&#45;&gt;Movies -->
<g id="edge55" class="edge" data-name="Knowledgeable-&gt;Movies">

<path fill="none" stroke="black" d="M482.6,-654.81C532.23,-644.94 603.77,-630.71 650.52,-621.41"/>
<polygon fill="black" stroke="black" points="650.94,-624.89 660.06,-619.51 649.57,-618.03 650.94,-624.89"/>
</g>
<!-- Competent Programmer&#45;&gt;Wryze -->
<g id="edge32" class="edge" data-name="Competent Programmer-&gt;Wryze">

<path fill="none" stroke="black" d="M529.75,-828C571.43,-828 617.43,-828 650.75,-828"/>
<polygon fill="black" stroke="black" points="650.47,-831.5 660.47,-828 650.47,-824.5 650.47,-831.5"/>
</g>
<!-- Rest Days -->
<g id="node27" class="node" pointer-events="visible" data-name="Rest Days">

<ellipse fill="none" stroke="black" cx="698.8" cy="-882" rx="50.43" ry="18"/>
<text text-anchor="middle" x="698.8" y="-877.8" font-family="Times,serif" font-size="14.00">Rest Days</text>
</g>
<!-- Competent Programmer&#45;&gt;Rest Days -->
<g id="edge28" class="edge" data-name="Competent Programmer-&gt;Rest Days">

<path fill="none" stroke="black" d="M495.2,-841.7C540.95,-850.8 600.22,-862.59 642.82,-871.06"/>
<polygon fill="black" stroke="black" points="642.12,-874.49 652.61,-873.01 643.48,-867.63 642.12,-874.49"/>
</g>
<!-- Throw a party -->
<g id="node31" class="node" pointer-events="visible" data-name="Throw a party">

<ellipse fill="none" stroke="black" cx="698.8" cy="-558" rx="65.98" ry="18"/>
<text text-anchor="middle" x="698.8" y="-553.8" font-family="Times,serif" font-size="14.00">Throw a party</text>
</g>
<!-- Fun &amp; Tight Social Circle&#45;&gt;Throw a party -->
<g id="edge33" class="edge" data-name="Fun &amp; Tight Social Circle-&gt;Throw a party">

<path fill="none" stroke="black" d="M537.54,-558C565.73,-558 595.38,-558 621.4,-558"/>
<polygon fill="black" stroke="black" points="621.18,-561.5 631.18,-558 621.18,-554.5 621.18,-561.5"/>
</g>
<!-- Something Nice for Courtney -->
<g id="node40" class="node" pointer-events="visible" data-name="Something Nice for Courtney">

<ellipse fill="none" stroke="black" cx="698.8" cy="-504" rx="125.61" ry="18"/>
<text text-anchor="middle" x="698.8" y="-499.8" font-family="Times,serif" font-size="14.00">Something Nice for Courtney</text>
</g>
<!-- Good Partner&#45;&gt;Something Nice for Courtney -->
<g id="edge43" class="edge" data-name="Good Partner-&gt;Something Nice for Courtney">

<path fill="none" stroke="black" d="M488.29,-504C510.23,-504 535.88,-504 561.54,-504"/>
<polygon fill="black" stroke="black" points="561.41,-507.5 571.41,-504 561.41,-500.5 561.41,-507.5"/>
</g>
<!-- Call Mom -->
<g id="node36" class="node" pointer-events="visible" data-name="Call Mom">

<ellipse fill="none" stroke="black" cx="698.8" cy="-234" rx="50.44" ry="18"/>
<text text-anchor="middle" x="698.8" y="-229.8" font-family="Times,serif" font-size="14.00">Call Mom</text>
</g>
<!-- Caring Family Member&#45;&gt;Call Mom -->
<g id="edge39" class="edge" data-name="Caring Family Member-&gt;Call Mom">

<path fill="none" stroke="black" d="M496.88,-377.74C511.58,-372.33 526.01,-364.72 537.24,-354 569.31,-323.41 539.56,-289.81 573.24,-261 590.71,-246.06 614.52,-238.8 636.64,-235.45"/>
<polygon fill="black" stroke="black" points="637.02,-238.93 646.51,-234.22 636.15,-231.98 637.02,-238.93"/>
</g>
<!-- Call Dad -->
<g id="node37" class="node" pointer-events="visible" data-name="Call Dad">

<ellipse fill="none" stroke="black" cx="698.8" cy="-450" rx="45.77" ry="18"/>
<text text-anchor="middle" x="698.8" y="-445.8" font-family="Times,serif" font-size="14.00">Call Dad</text>
</g>
<!-- Caring Family Member&#45;&gt;Call Dad -->
<g id="edge40" class="edge" data-name="Caring Family Member-&gt;Call Dad">

<path fill="none" stroke="black" d="M491.06,-405.11C516.66,-410.69 546.33,-417.15 573.24,-423 597.47,-428.27 624.36,-434.1 646.93,-438.99"/>
<polygon fill="black" stroke="black" points="645.97,-442.36 656.49,-441.06 647.46,-435.52 645.97,-442.36"/>
</g>
<!-- Call Gram -->
<g id="node38" class="node" pointer-events="visible" data-name="Call Gram">

<ellipse fill="none" stroke="black" cx="698.8" cy="-396" rx="51.56" ry="18"/>
<text text-anchor="middle" x="698.8" y="-391.8" font-family="Times,serif" font-size="14.00">Call Gram</text>
</g>
<!-- Caring Family Member&#45;&gt;Call Gram -->
<g id="edge41" class="edge" data-name="Caring Family Member-&gt;Call Gram">

<path fill="none" stroke="black" d="M527.43,-392.86C563.68,-393.53 603.46,-394.26 635.46,-394.85"/>
<polygon fill="black" stroke="black" points="635.29,-398.35 645.36,-395.03 635.42,-391.35 635.29,-398.35"/>
</g>
<!-- Call Jake -->
<g id="node39" class="node" pointer-events="visible" data-name="Call Jake">

<ellipse fill="none" stroke="black" cx="698.8" cy="-342" rx="46.91" ry="18"/>
<text text-anchor="middle" x="698.8" y="-337.8" font-family="Times,serif" font-size="14.00">Call Jake</text>
</g>
<!-- Caring Family Member&#45;&gt;Call Jake -->
<g id="edge42" class="edge" data-name="Caring Family Member-&gt;Call Jake">

<path fill="none" stroke="black" d="M498.38,-378C544.32,-369.7 602.86,-359.14 644.6,-351.6"/>
<polygon fill="black" stroke="black" points="645.2,-355.05 654.42,-349.83 643.95,-348.16 645.2,-355.05"/>
</g>
<!-- Monster Truck with Ben -->
<g id="node58" class="node" pointer-events="visible" data-name="Monster Truck with Ben">

<ellipse fill="none" stroke="black" cx="698.8" cy="-288" rx="106.5" ry="18"/>
<text text-anchor="middle" x="698.8" y="-283.8" font-family="Times,serif" font-size="14.00">Monster Truck with Ben</text>
</g>
<!-- Caring Family Member&#45;&gt;Monster Truck with Ben -->
<g id="edge61" class="edge" data-name="Caring Family Member-&gt;Monster Truck with Ben">

<path fill="none" stroke="black" d="M488.14,-376.44C504.85,-370.93 522.41,-363.58 537.24,-354 557.05,-341.2 552.76,-326.71 573.24,-315 582.2,-309.88 592.03,-305.73 602.11,-302.36"/>
<polygon fill="black" stroke="black" points="603.12,-305.71 611.67,-299.45 601.09,-299.01 603.12,-305.71"/>
</g>
<!-- Cover Expenses -->
<g id="node32" class="node" pointer-events="visible" data-name="Cover Expenses">

<ellipse fill="none" stroke="black" cx="698.8" cy="-180" rx="73.55" ry="18"/>
<text text-anchor="middle" x="698.8" y="-175.8" font-family="Times,serif" font-size="14.00">Cover Expenses</text>
</g>
<!-- Financial Independence&#45;&gt;Cover Expenses -->
<g id="edge34" class="edge" data-name="Financial Independence-&gt;Cover Expenses">

<path fill="none" stroke="black" d="M483.34,-311.69C502.2,-304.46 522.19,-294.21 537.24,-280 563.54,-255.16 544.73,-229.27 573.24,-207 585.52,-197.41 600.47,-191.05 615.68,-186.88"/>
<polygon fill="black" stroke="black" points="616.41,-190.3 625.31,-184.56 614.77,-183.5 616.41,-190.3"/>
</g>
<!-- Van -->
<g id="node57" class="node" pointer-events="visible" data-name="Van">

<ellipse fill="none" stroke="black" cx="698.8" cy="-126" rx="27.25" ry="18"/>
<text text-anchor="middle" x="698.8" y="-121.8" font-family="Times,serif" font-size="14.00">Van</text>
</g>
<!-- Live in a Cool Place&#45;&gt;Van -->
<g id="edge60" class="edge" data-name="Live in a Cool Place-&gt;Van">

<path fill="none" stroke="black" d="M458.5,-235.82C481.23,-223.14 512.03,-204.87 537.24,-186 554.62,-172.99 553.97,-162.98 573.24,-153 600.51,-138.89 634.8,-132.14 660.5,-128.92"/>
<polygon fill="black" stroke="black" points="660.6,-132.43 670.15,-127.84 659.82,-125.48 660.6,-132.43"/>
</g>
<!-- Try new meal -->
<g id="node55" class="node" pointer-events="visible" data-name="Try new meal">

<ellipse fill="none" stroke="black" cx="698.8" cy="-72" rx="64.83" ry="18"/>
<text text-anchor="middle" x="698.8" y="-67.8" font-family="Times,serif" font-size="14.00">Try new meal</text>
</g>
<!-- Healthy &amp; Fit&#45;&gt;Try new meal -->
<g id="edge58" class="edge" data-name="Healthy &amp; Fit-&gt;Try new meal">

<path fill="none" stroke="black" d="M459.87,-143.35C489.25,-130.1 533.38,-111.36 573.24,-99 592.14,-93.14 613.04,-88.08 632.24,-83.97"/>
<polygon fill="black" stroke="black" points="632.75,-87.44 641.83,-81.98 631.33,-80.59 632.75,-87.44"/>
</g>
<!-- Journal -->
<g id="node48" class="node" pointer-events="visible" data-name="Journal">

<ellipse fill="none" stroke="black" cx="698.8" cy="-18" rx="39.43" ry="18"/>
<text text-anchor="middle" x="698.8" y="-13.8" font-family="Times,serif" font-size="14.00">Journal</text>
</g>
<!-- Lead a Conscious Life&#45;&gt;Journal -->
<g id="edge51" class="edge" data-name="Lead a Conscious Life-&gt;Journal">

<path fill="none" stroke="black" d="M523.2,-21.86C565.33,-20.93 612.92,-19.88 647.77,-19.11"/>
<polygon fill="black" stroke="black" points="647.63,-22.61 657.55,-18.89 647.48,-15.61 647.63,-22.61"/>
</g>
<!-- Environmentalist&#45;&gt;Wryze -->
<g id="edge38" class="edge" data-name="Environmentalist-&gt;Wryze">

<path fill="none" stroke="black" d="M485.25,-785.72C535.85,-795.78 607.69,-810.07 653.52,-819.19"/>
<polygon fill="black" stroke="black" points="652.61,-822.58 663.1,-821.1 653.97,-815.71 652.61,-822.58"/>
</g>
<!-- The Prow -->
<g id="node22" class="node" pointer-events="visible" data-name="The Prow">

<ellipse fill="none" stroke="black" cx="971.96" cy="-1341" rx="48.71" ry="18"/>
<text text-anchor="middle" x="971.96" y="-1336.8" font-family="Times,serif" font-size="14.00">The Prow</text>
</g>
<!-- Road to the Nose&#45;&gt;The Prow -->
<g id="edge21" class="edge" data-name="Road to the Nose-&gt;The Prow">

<path fill="none" stroke="black" d="M776.78,-1341C819.53,-1341 871.91,-1341 911.48,-1341"/>
<polygon fill="black" stroke="black" points="911.3,-1344.5 921.3,-1341 911.3,-1337.5 911.3,-1344.5"/>
</g>
<!-- King Swing -->
<g id="node23" class="node" pointer-events="visible" data-name="King Swing">

<ellipse fill="none" stroke="black" cx="971.96" cy="-1395" rx="57.4" ry="18"/>
<text text-anchor="middle" x="971.96" y="-1390.8" font-family="Times,serif" font-size="14.00">King Swing</text>
</g>
<!-- Road to the Nose&#45;&gt;King Swing -->
<g id="edge22" class="edge" data-name="Road to the Nose-&gt;King Swing">

<path fill="none" stroke="black" d="M758.97,-1352.78C804.22,-1361.8 866.33,-1374.17 911.62,-1383.18"/>
<polygon fill="black" stroke="black" points="910.78,-1386.59 921.27,-1385.11 912.15,-1379.72 910.78,-1386.59"/>
</g>
<!-- Smart Compass -->
<g id="node28" class="node" pointer-events="visible" data-name="Smart Compass">

<ellipse fill="none" stroke="black" cx="971.96" cy="-855" rx="71.86" ry="18"/>
<text text-anchor="middle" x="971.96" y="-850.8" font-family="Times,serif" font-size="14.00">Smart Compass</text>
</g>
<!-- Rest Days&#45;&gt;Smart Compass -->
<g id="edge29" class="edge" data-name="Rest Days-&gt;Smart Compass">

<path fill="none" stroke="black" d="M747.96,-877.2C788.17,-873.2 846.27,-867.42 893.08,-862.75"/>
<polygon fill="black" stroke="black" points="893.3,-866.25 902.9,-861.78 892.61,-859.28 893.3,-866.25"/>
</g>
<!-- Tangled Trees -->
<g id="node29" class="node" pointer-events="visible" data-name="Tangled Trees">

<ellipse fill="none" stroke="black" cx="971.96" cy="-801" rx="66.57" ry="18"/>
<text text-anchor="middle" x="971.96" y="-796.8" font-family="Times,serif" font-size="14.00">Tangled Trees</text>
</g>
<!-- Rest Days&#45;&gt;Tangled Trees -->
<g id="edge30" class="edge" data-name="Rest Days-&gt;Tangled Trees">

<path fill="none" stroke="black" d="M747.46,-876.58C771.33,-872.65 800.2,-866.03 824.36,-855 842.55,-846.69 842.27,-836.55 860.36,-828 873.67,-821.71 888.6,-816.79 903.08,-812.98"/>
<polygon fill="black" stroke="black" points="903.7,-816.44 912.57,-810.64 902.02,-809.64 903.7,-816.44"/>
</g>
<!-- Yenta -->
<g id="node30" class="node" pointer-events="visible" data-name="Yenta">

<ellipse fill="none" stroke="black" cx="971.96" cy="-909" rx="34.19" ry="18"/>
<text text-anchor="middle" x="971.96" y="-904.8" font-family="Times,serif" font-size="14.00">Yenta</text>
</g>
<!-- Rest Days&#45;&gt;Yenta -->
<g id="edge31" class="edge" data-name="Rest Days-&gt;Yenta">

<path fill="none" stroke="black" d="M747.96,-886.8C798.68,-891.85 877.86,-899.73 926.95,-904.62"/>
<polygon fill="black" stroke="black" points="926.35,-908.08 936.64,-905.58 927.04,-901.11 926.35,-908.08"/>
</g>
<!-- Freelance -->
<g id="node33" class="node" pointer-events="visible" data-name="Freelance">

<ellipse fill="none" stroke="black" cx="971.96" cy="-180" rx="48.63" ry="18"/>
<text text-anchor="middle" x="971.96" y="-175.8" font-family="Times,serif" font-size="14.00">Freelance</text>
</g>
<!-- Cover Expenses&#45;&gt;Freelance -->
<g id="edge35" class="edge" data-name="Cover Expenses-&gt;Freelance">

<path fill="none" stroke="black" d="M772.82,-180C816.31,-180 870.81,-180 911.64,-180"/>
<polygon fill="black" stroke="black" points="911.52,-183.5 921.52,-180 911.52,-176.5 911.52,-183.5"/>
</g>
<!-- Fiverr -->
<g id="node34" class="node" pointer-events="visible" data-name="Fiverr">

<ellipse fill="none" stroke="black" cx="1198.44" cy="-207" rx="34.77" ry="18"/>
<text text-anchor="middle" x="1198.44" y="-202.8" font-family="Times,serif" font-size="14.00">Fiverr</text>
</g>
<!-- Freelance&#45;&gt;Fiverr -->
<g id="edge36" class="edge" data-name="Freelance-&gt;Fiverr">

<path fill="none" stroke="black" d="M1018.65,-185.5C1057.97,-190.23 1114.35,-197.01 1153.23,-201.68"/>
<polygon fill="black" stroke="black" points="1152.35,-205.1 1162.7,-202.82 1153.19,-198.15 1152.35,-205.1"/>
</g>
<!-- Reach out to paul -->
<g id="node35" class="node" pointer-events="visible" data-name="Reach out to paul">

<ellipse fill="none" stroke="black" cx="1198.44" cy="-153" rx="78.77" ry="18"/>
<text text-anchor="middle" x="1198.44" y="-148.8" font-family="Times,serif" font-size="14.00">Reach out to paul</text>
</g>
<!-- Freelance&#45;&gt;Reach out to paul -->
<g id="edge37" class="edge" data-name="Freelance-&gt;Reach out to paul">

<path fill="none" stroke="black" d="M1018.65,-174.5C1046.87,-171.11 1083.87,-166.66 1116.89,-162.69"/>
<polygon fill="black" stroke="black" points="1116.9,-166.21 1126.41,-161.54 1116.06,-159.26 1116.9,-166.21"/>
</g>
<!-- Real Salt Lake Game -->
<g id="node59" class="node" pointer-events="visible" data-name="Real Salt Lake Game">

<ellipse fill="none" stroke="black" cx="971.96" cy="-504" rx="93.21" ry="18"/>
<text text-anchor="middle" x="971.96" y="-499.8" font-family="Times,serif" font-size="14.00">Real Salt Lake Game</text>
</g>
<!-- Something Nice for Courtney&#45;&gt;Real Salt Lake Game -->
<g id="edge62" class="edge" data-name="Something Nice for Courtney-&gt;Real Salt Lake Game">

<path fill="none" stroke="black" d="M824.66,-504C838.78,-504 853.05,-504 866.86,-504"/>
<polygon fill="black" stroke="black" points="866.83,-507.5 876.83,-504 866.83,-500.5 866.83,-507.5"/>
</g>
<!-- RRR -->
<g id="node44" class="node" pointer-events="visible" data-name="RRR">

<ellipse fill="none" stroke="black" cx="971.96" cy="-1125" rx="30.22" ry="18"/>
<text text-anchor="middle" x="971.96" y="-1120.8" font-family="Times,serif" font-size="14.00">RRR</text>
</g>
<!-- Running&#45;&gt;RRR -->
<g id="edge47" class="edge" data-name="Running-&gt;RRR">

<path fill="none" stroke="black" d="M738.94,-1171.21C790.48,-1160.94 880.57,-1143 932.01,-1132.76"/>
<polygon fill="black" stroke="black" points="932.38,-1136.25 941.5,-1130.87 931.01,-1129.39 932.38,-1136.25"/>
</g>
<!-- WURL -->
<g id="node45" class="node" pointer-events="visible" data-name="WURL">

<ellipse fill="none" stroke="black" cx="971.96" cy="-1287" rx="39.43" ry="18"/>
<text text-anchor="middle" x="971.96" y="-1282.8" font-family="Times,serif" font-size="14.00">WURL</text>
</g>
<!-- Running&#45;&gt;WURL -->
<g id="edge48" class="edge" data-name="Running-&gt;WURL">

<path fill="none" stroke="black" d="M724.85,-1193.91C755.78,-1211.77 810.41,-1241.58 860.36,-1260 880.59,-1267.46 903.66,-1273.47 923.48,-1277.9"/>
<polygon fill="black" stroke="black" points="922.73,-1281.32 933.24,-1280.01 924.21,-1274.48 922.73,-1281.32"/>
</g>
<!-- 5 min mile -->
<g id="node46" class="node" pointer-events="visible" data-name="5 min mile">

<ellipse fill="none" stroke="black" cx="971.96" cy="-1233" rx="52.76" ry="18"/>
<text text-anchor="middle" x="971.96" y="-1228.8" font-family="Times,serif" font-size="14.00">5 min mile</text>
</g>
<!-- Running&#45;&gt;5 min mile -->
<g id="edge49" class="edge" data-name="Running-&gt;5 min mile">

<path fill="none" stroke="black" d="M738.94,-1186.79C785.12,-1195.99 862.26,-1211.35 914.81,-1221.82"/>
<polygon fill="black" stroke="black" points="913.98,-1225.22 924.47,-1223.74 915.35,-1218.36 913.98,-1225.22"/>
</g>
<!-- Boston -->
<g id="node47" class="node" pointer-events="visible" data-name="Boston">

<ellipse fill="none" stroke="black" cx="971.96" cy="-1179" rx="38.31" ry="18"/>
<text text-anchor="middle" x="971.96" y="-1174.8" font-family="Times,serif" font-size="14.00">Boston</text>
</g>
<!-- Running&#45;&gt;Boston -->
<g id="edge50" class="edge" data-name="Running-&gt;Boston">

<path fill="none" stroke="black" d="M743.36,-1179C792.11,-1179 870.91,-1179 921.82,-1179"/>
<polygon fill="black" stroke="black" points="921.67,-1182.5 931.67,-1179 921.67,-1175.5 921.67,-1182.5"/>
</g>
<!-- White Rim -->
<g id="node43" class="node" pointer-events="visible" data-name="White Rim">

<ellipse fill="none" stroke="black" cx="971.96" cy="-1071" rx="53.86" ry="18"/>
<text text-anchor="middle" x="971.96" y="-1066.8" font-family="Times,serif" font-size="14.00">White Rim</text>
</g>
<!-- Mountain Biking&#45;&gt;White Rim -->
<g id="edge46" class="edge" data-name="Mountain Biking-&gt;White Rim">

<path fill="none" stroke="black" d="M776.05,-1071C817.17,-1071 867.35,-1071 906.49,-1071"/>
<polygon fill="black" stroke="black" points="906.49,-1074.5 916.49,-1071 906.49,-1067.5 906.49,-1074.5"/>
</g>
<!-- Atomic Habits -->
<g id="node50" class="node" pointer-events="visible" data-name="Atomic Habits">

<ellipse fill="none" stroke="black" cx="971.96" cy="-666" rx="67.76" ry="18"/>
<text text-anchor="middle" x="971.96" y="-661.8" font-family="Times,serif" font-size="14.00">Atomic Habits</text>
</g>
<!-- Reading&#45;&gt;Atomic Habits -->
<g id="edge53" class="edge" data-name="Reading-&gt;Atomic Habits">

<path fill="none" stroke="black" d="M742.46,-666C782.51,-666 843.38,-666 892.23,-666"/>
<polygon fill="black" stroke="black" points="892.22,-669.5 902.22,-666 892.22,-662.5 892.22,-669.5"/>
</g>
<!-- Mans Search for Meaning -->
<g id="node51" class="node" pointer-events="visible" data-name="Mans Search for Meaning">

<ellipse fill="none" stroke="black" cx="971.96" cy="-720" rx="111.7" ry="18"/>
<text text-anchor="middle" x="971.96" y="-715.8" font-family="Times,serif" font-size="14.00">Mans Search for Meaning</text>
</g>
<!-- Reading&#45;&gt;Mans Search for Meaning -->
<g id="edge54" class="edge" data-name="Reading-&gt;Mans Search for Meaning">

<path fill="none" stroke="black" d="M738.65,-673.74C777.65,-681.5 838.95,-693.71 888.78,-703.64"/>
<polygon fill="black" stroke="black" points="887.9,-707.03 898.39,-705.55 889.27,-700.16 887.9,-707.03"/>
</g>
<!-- Dopesick -->
<g id="node53" class="node" pointer-events="visible" data-name="Dopesick">

<ellipse fill="none" stroke="black" cx="971.96" cy="-558" rx="47.52" ry="18"/>
<text text-anchor="middle" x="971.96" y="-553.8" font-family="Times,serif" font-size="14.00">Dopesick</text>
</g>
<!-- Movies&#45;&gt;Dopesick -->
<g id="edge56" class="edge" data-name="Movies-&gt;Dopesick">

<path fill="none" stroke="black" d="M736.09,-604.77C782.84,-595.46 864.46,-579.21 918.1,-568.53"/>
<polygon fill="black" stroke="black" points="918.49,-572.02 927.62,-566.63 917.13,-565.15 918.49,-572.02"/>
</g>
<!-- Before Sunrise -->
<g id="node54" class="node" pointer-events="visible" data-name="Before Sunrise">

<ellipse fill="none" stroke="black" cx="971.96" cy="-612" rx="68.89" ry="18"/>
<text text-anchor="middle" x="971.96" y="-607.8" font-family="Times,serif" font-size="14.00">Before Sunrise</text>
</g>
<!-- Movies&#45;&gt;Before Sunrise -->
<g id="edge57" class="edge" data-name="Movies-&gt;Before Sunrise">

<path fill="none" stroke="black" d="M739.23,-612C778.88,-612 841.14,-612 891.15,-612"/>
<polygon fill="black" stroke="black" points="891.08,-615.5 901.08,-612 891.08,-608.5 891.08,-615.5"/>
</g>
<!-- Vegetable Biryani -->
<g id="node56" class="node" pointer-events="visible" data-name="Vegetable Biryani">

<ellipse fill="none" stroke="black" cx="971.96" cy="-72" rx="81.62" ry="18"/>
<text text-anchor="middle" x="971.96" y="-67.8" font-family="Times,serif" font-size="14.00">Vegetable Biryani</text>
</g>
<!-- Try new meal&#45;&gt;Vegetable Biryani -->
<g id="edge59" class="edge" data-name="Try new meal-&gt;Vegetable Biryani">

<path fill="none" stroke="black" d="M764.06,-72C798.19,-72 840.76,-72 878.39,-72"/>
<polygon fill="black" stroke="black" points="878.38,-75.5 888.38,-72 878.38,-68.5 878.38,-75.5"/>
</g>
<!-- Get Skins -->
<g id="node61" class="node" pointer-events="visible" data-name="Get Skins">

<ellipse fill="none" stroke="black" cx="971.96" cy="-963" rx="48.73" ry="18"/>
<text text-anchor="middle" x="971.96" y="-958.8" font-family="Times,serif" font-size="14.00">Get Skins</text>
</g>
<!-- Backcountry Skiing&#45;&gt;Get Skins -->
<g id="edge64" class="edge" data-name="Backcountry Skiing-&gt;Get Skins">

<path fill="none" stroke="black" d="M763.03,-1004.41C809.82,-995.09 872.86,-982.53 917.22,-973.7"/>
<polygon fill="black" stroke="black" points="917.75,-977.16 926.88,-971.78 916.38,-970.3 917.75,-977.16"/>
</g>
<!-- Replace Beacon -->
<g id="node62" class="node" pointer-events="visible" data-name="Replace Beacon">

<ellipse fill="none" stroke="black" cx="971.96" cy="-1017" rx="73.51" ry="18"/>
<text text-anchor="middle" x="971.96" y="-1012.8" font-family="Times,serif" font-size="14.00">Replace Beacon</text>
</g>
<!-- Backcountry Skiing&#45;&gt;Replace Beacon -->

<g id="edge65" class="edge" data-name="Backcountry Skiing-&gt;Replace Beacon">

<path fill="none" stroke="black" d="M787.09,-1017C819.08,-1017 855.19,-1017 886.89,-1017"/>
<polygon fill="black" stroke="black" points="886.84,-1020.5 896.84,-1017 886.84,-1013.5 886.84,-1020.5"/>
</g>
</g>
</svg>